<?xml version="1.0" standalone="no"?>
<!DOCTYPE svg PUBLIC "-//W3C//DTD SVG 1.1//EN" "http://www.w3.org/Graphics/SVG/1.1/DTD/svg11.dtd" >
<svg xmlns="http://www.w3.org/2000/svg">
<metadata></metadata>
<defs>
<font id="ARESSENCERegular" horiz-adv-x="908" >
<font-face units-per-em="2048" ascent="1638" descent="-410" />
<missing-glyph horiz-adv-x="870" />
<glyph horiz-adv-x="0" />
<glyph horiz-adv-x="2048" />
<glyph unicode=" "  horiz-adv-x="870" />
<glyph unicode="&#x09;" horiz-adv-x="870" />
<glyph unicode="&#xa0;" horiz-adv-x="870" />
<glyph unicode="!" horiz-adv-x="434" d="M64 140q0 64 44 108t108 44t109 -45t45 -107t-44 -108t-108 -46t-109 45t-45 109zM90 1334h256q-26 -197 -26 -524l4 -440h-214l4 482q0 280 -24 482z" />
<glyph unicode="&#x22;" horiz-adv-x="706" d="M64 1348l128 2l128 -2l-44 -404h-168zM386 1348l128 2l128 -2l-44 -404h-168z" />
<glyph unicode="#" horiz-adv-x="1152" d="M64 396v216q108 -12 220 -12q2 30 6 67l8 74q6 57 12 127q-102 -4 -206 -12v216q110 -12 226 -12q12 108 12 122v44q0 30 8 126h204q-16 -76 -25 -148t-23 -144h200q6 64 11 105t8 71q5 50 5 116h200q-10 -42 -16 -77t-12 -68t-11 -69t-11 -78q100 0 208 12v-216 q-174 12 -228 12q-16 -112 -28 -268q102 0 214 12v-216q-168 12 -232 12q-4 -48 -5 -93t-5 -87q-8 -84 -8 -218h-210q29 127 40 256l14 142h-198q-6 -58 -14 -113t-11 -98t-7 -86t-6 -101h-206q10 64 25 124t21 115t11 90t9 69q-102 -4 -200 -12zM460 600h200l26 268h-200 q-4 -30 -7 -67l-6 -74t-7 -70t-6 -57z" />
<glyph unicode="$" horiz-adv-x="858" d="M64 130v236q145 -58 245.5 -58t158.5 28q78 38 78 109t-118 159q-214 160 -220 164q-120 112 -120 223t61 175t163 84q0 50 -14 162h226l-12 -148q94 -13 198 -62v-232q-169 104 -292 104q-28 0 -64 -18l-24 -44q16 -60 161 -161t191 -147q112 -112 112 -241t-79 -220 t-203 -121q0 -97 14 -202h-230q14 98 14 176q-133 0 -246 34z" />
<glyph unicode="%" horiz-adv-x="1336" d="M64 1008q0 156 62 255t208 99q272 0 272 -354t-270 -354q-272 0 -272 354zM240 62q46 27 508 966q162 332 160 344l182 -92q-57 -45 -464 -888l-204 -424zM250 1008q0 -210 86 -210t86 210t-86 210t-86 -210zM732 348q0 354 270 354q146 0 208 -99t62 -255 q0 -354 -270 -354q-146 0 -208 99t-62 255zM916 348q0 -210 86 -210t86 210t-86 210t-86 -210z" />
<glyph unicode="&#x26;" horiz-adv-x="1328" d="M64 428q0 263 254 424q-52 96 -52 172q0 146 108 234t250.5 88t295.5 -58v-228q-148 82 -262 82q-66 0 -109 -32t-43 -96q0 -88 162 -270q180 -186 214 -222q24 76 24 173t-26 197l168 -2h30q100 0 186 14v-222q-54 6 -110 6h-28v-32q0 -164 -72 -312q68 -72 104 -105 t102 -79l-174 -190q-47 72 -170 182q-148 -172 -376 -172q-196 0 -336 126t-140 322zM298 446q0 -100 74 -174t174 -74q127 0 224 110q-246 246 -336 364q-136 -83 -136 -226z" />
<glyph unicode="'" horiz-adv-x="384" d="M64 1348l128 2l128 -2l-44 -404h-168z" />
<glyph unicode="(" horiz-adv-x="588" d="M64 660q0 460 294 858l166 -86q-102 -158 -158 -362t-56 -403t55 -404t159 -363l-166 -84q-294 395 -294 844z" />
<glyph unicode=")" horiz-adv-x="588" d="M64 -100q102 156 158 361t56 407t-54 402t-160 362l166 86q140 -184 217 -401t77 -447q0 -466 -294 -854z" />
<glyph unicode="*" horiz-adv-x="694" d="M64 986v158l188 -24l-114 152l136 78l74 -176l72 176l136 -78l-114 -152l188 22v-156l-188 24l114 -150l-136 -80l-72 176l-74 -176l-136 80l114 150z" />
<glyph unicode="+" horiz-adv-x="1066" d="M64 362v216q86 -12 172 -12h182v136q0 64 -12 208h254q-14 -92 -14 -204v-140h164q98 0 192 12v-216q-112 14 -200 14h-156v-120q0 -122 14 -226h-254q12 96 12 194v152h-152q-73 0 -202 -14z" />
<glyph unicode="," horiz-adv-x="442" d="M64 146q0 62 44 108t114 46t113 -55t43 -131t-37 -153t-97 -139h-168q80 65 122 178q-58 0 -96 42t-38 104z" />
<glyph unicode="-" horiz-adv-x="728" d="M64 362v216q88 -12 172 -12h236q98 0 192 12v-216q-112 14 -200 14h-198q-73 0 -202 -14z" />
<glyph unicode="." horiz-adv-x="434" d="M64 140q0 64 44 108t109 44t109 -44t44 -108t-43 -109t-108 -45t-110 45t-45 109z" />
<glyph unicode="/" horiz-adv-x="808" d="M64 -10q35 58 63 145q57 172 129 373q171 475 219.5 656.5t68.5 273.5l200 -100q-98 -189 -286 -768q-204 -629 -194 -674z" />
<glyph unicode="0" horiz-adv-x="1046" d="M64 668q0 678 458 678q260 0 374 -224q86 -168 86 -456t-86 -456q-114 -224 -373 -224t-373 224q-86 170 -86 458zM318 666q0 -246 51 -358t155 -112q206 0 206 470q0 188 -26 288q-48 184 -180 184q-206 0 -206 -472z" />
<glyph unicode="1" horiz-adv-x="572" d="M64 1008v140q198 0 292 192h152q-16 -100 -16 -252v-924q0 -44 16 -164h-274q18 132 18 266v742h-188z" />
<glyph unicode="2" d="M64 0v198q110 128 292 400q210 321 210 394.5t-46 108.5t-110 35q-138 0 -270 -102v234q148 76 301 76t262 -88t109 -242q0 -143 -184 -423q-52 -79 -93 -138t-59 -85t-38 -53t-39 -52t-37 -51h216q157 0 266 14v-226h-780z" />
<glyph unicode="3" horiz-adv-x="864" d="M64 208h44q158 0 286 74q154 88 154 234q0 60 -37 101t-98 41t-145 -46l-86 202q108 43 154 76q86 64 86 140q0 50 -37 79t-89 29q-91 0 -224 -80v228q140 60 276 60q139 0 227 -74q91 -76 91 -200t-92 -224q103 -20 170 -108q56 -84 56 -198q0 -280 -234 -432 q-202 -130 -488 -130z" />
<glyph unicode="4" horiz-adv-x="944" d="M2 516q150 196 299 438t221 428l210 -128q-108 -130 -228 -333t-226 -387h246v24q0 136 -18 268h262q-16 -108 -16 -268v-22l128 10v-232l-128 10q0 -209 16 -324h-262q18 137 18 328l-410 -8z" />
<glyph unicode="5" horiz-adv-x="840" d="M64 212h36q152 0 290 93t138 239q0 74 -45 123t-119 49t-154 -52l-142 142q102 283 102 528h592v-226q-117 14 -204 14h-188l-40 -208q60 16 114 16q146 0 239 -103t93 -251q0 -268 -209 -431t-479 -163z" />
<glyph unicode="6" horiz-adv-x="996" d="M64 486q0 300 200 544t498 368l114 -204q-291 -88 -468 -366q86 46 168 46q164 0 260 -125t96 -311t-118 -321t-321 -135t-316 146t-113 358zM314 446q0 -86 42 -160q52 -92 147 -92t139 73t44 170t-44 163t-134 66q-78 0 -176 -68q-18 -66 -18 -152z" />
<glyph unicode="7" horiz-adv-x="854" d="M0 84q163 228 351.5 595t228.5 441h-103q-51 0 -152.5 1t-232.5 -15v228h760v-202q0 -8 -171 -310t-289 -519t-164 -343z" />
<glyph unicode="8" horiz-adv-x="998" d="M64 404q0 273 180 332q-116 54 -116 239t98 279t271 94t273 -94t100 -279.5t-116 -238.5q96 -32 138 -124t42 -208q0 -202 -115 -311t-319 -109t-320 110t-116 310zM316 419q0 -221 182 -221q98 0 140 57t42 159q0 226 -182 226t-182 -221zM352 990q0 -172 146 -172 t146 173t-146 173q-74 0 -110 -48t-36 -126z" />
<glyph unicode="9" horiz-adv-x="990" d="M64 933q0 179 116 297t317 118t315 -149t114 -367q0 -278 -180 -516t-448 -368l-124 194q268 98 454 418q-99 -66 -198 -66q-166 0 -266 130t-100 309zM308 942q0 -90 49 -163t139 -73q98 0 180 82l4 62q0 114 -42 196q-54 104 -160 104q-82 0 -126 -59t-44 -149z" />
<glyph unicode=":" horiz-adv-x="498" d="M96 140q0 64 44 108t109 44t109 -44t44 -108t-43 -109t-108 -45t-110 45t-45 109zM96 673q0 65 44 109t109 44t109 -44t44 -109t-44 -109t-107 -44t-109 44t-46 109z" />
<glyph unicode=";" horiz-adv-x="506" d="M96 146q0 62 44 108t114 46t113 -55t43 -131t-37 -153t-97 -139h-168q80 65 122 178q-58 0 -96 42t-38 104zM100 673q0 65 44 109t109 44t109 -44t44 -109t-44 -109t-107 -44t-109 44t-46 109z" />
<glyph unicode="&#x3c;" horiz-adv-x="956" d="M64 466v212q444 198 816 388l6 -244q-324 -118 -596 -258q193 -114 602 -270l-10 -228q-207 112 -818 400z" />
<glyph unicode="=" horiz-adv-x="954" d="M64 272v216q100 -12 202 -12h434q96 0 190 12v-216q-132 12 -178 12h-452q-96 0 -196 -12zM64 642v216q100 -12 202 -12h434q96 0 190 12v-216q-132 12 -178 12h-452q-96 0 -196 -12z" />
<glyph unicode="&#x3e;" horiz-adv-x="956" d="M64 294q409 156 602 270q-272 140 -596 258l6 244q372 -190 816 -388v-212q-68 -32 -169 -80t-215 -102q-256 -121 -434 -218z" />
<glyph unicode="?" horiz-adv-x="738" d="M64 1044v230q152 76 286 76t229 -83t95 -210t-80 -235q-192 -260 -194 -272q-6 -36 -6 -100v-82h-224l-2 118q0 176 137 337t137 213t-35 83t-91 31t-112 -26t-140 -80zM126 140q0 64 44 108t108 44t109 -45t45 -107t-44 -108t-108 -46t-109 45t-45 109z" />
<glyph unicode="@" horiz-adv-x="1674" d="M64 332q0 178 49 353t155 313t272 223t400 85q320 0 504 -210q166 -190 166 -492q0 -250 -114 -419q-122 -181 -318 -181q-125 0 -177 92q-17 30 -35 70q-147 -162 -266 -162q-124 0 -185 101q-49 82 -49 217q0 197 81 373q60 131 169 189q56 30 109 30t77 -9t45 -27 q29 -25 89 -108l28 126h176q-50 -194 -92 -536q-6 -85 -2 -108q9 -50 52.5 -50t78.5 34t61 89q56 118 56 238.5t-22 210.5t-76 163q-122 165 -380 165q-172 0 -293 -71t-197 -183q-148 -218 -148 -522q0 -251 145 -383q129 -117 325.5 -117t413.5 100l-2 -216 q-204 -80 -372 -80t-294 43t-222 130q-208 189 -208 529zM676 380q0 -178 100 -178q34 0 72 38t90 98l40 246q-28 58 -53 91t-71 33t-81 -39t-57 -94q-40 -100 -40 -195z" />
<glyph unicode="A" horiz-adv-x="1106" d="M0 36q47 105 128 380l-58 -8v226l120 -6l210 706h314q34 -118 111 -416t139 -502t142 -376l-262 -78q-12 106 -49 243t-57 213h-372q-8 -24 -52 -180t-62 -276zM422 626l262 2l-130 480z" />
<glyph unicode="B" horiz-adv-x="938" d="M64 0q16 108 16 266v800q0 156 -16 268l406 -2q382 0 382 -310q0 -154 -130 -308q192 -132 192 -358q0 -356 -420 -356h-430zM320 212h142q208 0 208 158q0 120 -118 200q-94 64 -232 88v-446zM320 706l92 158q45 -10 120 -44q88 96 88 175t-42 102t-118 23h-140v-414z " />
<glyph unicode="C" horiz-adv-x="826" d="M24 798q0 234 138 394t368 160q113 0 232 -46v-232q-116 58 -206 58q-132 0 -205 -99t-73 -235q0 -206 137 -382t335 -252l-116 -208q-268 118 -439 341t-171 501z" />
<glyph unicode="D" horiz-adv-x="1046" d="M64 0q24 208 24 480l-8 586q0 156 -16 268h256v-122l108 164q252 -118 410 -341t158 -491q0 -544 -550 -544h-382zM320 212h70q182 0 268 75t86 267t-116 354t-308 256v-952z" />
<glyph unicode="E" horiz-adv-x="936" d="M64 562v230l74 -6v296q0 118 -16 252h708v-228q-131 14 -228 14h-224v-338h132q128 0 254 12v-230q-117 14 -204 14h-182v-366h224q144 0 270 14v-226h-750q16 128 16 240v330q-31 0 -74 -8z" />
<glyph unicode="F" horiz-adv-x="816" d="M64 560v232l74 -10v286q0 144 -16 266h670v-228q-131 14 -226 14h-188v-338h126q116 0 234 12v-230q-117 14 -204 14h-156v-312q0 -126 16 -266h-272q16 108 16 266v304z" />
<glyph unicode="G" horiz-adv-x="1056" d="M24 802q0 250 150 400t402 150q116 0 280 -40v-228q-135 54 -273.5 54t-222.5 -94t-84 -248q0 -214 132 -389t338 -199v308q-94 0 -188 -12v212h432q-26 -156 -26 -345t28 -367q-94 -22 -184 -22q-330 0 -557 243t-227 577z" />
<glyph unicode="H" horiz-adv-x="1072" d="M64 588v238l74 -10v180q0 184 -16 338h272q-16 -140 -16 -266v-254h374v252q0 136 -18 268h274q-16 -108 -16 -268l-10 -590q0 -265 26 -476h-274q18 132 18 266v336h-374l-2 -228q0 -203 18 -374h-272q16 132 16 266v332z" />
<glyph unicode="I" horiz-adv-x="400" d="M64 0q16 108 16 266v802q0 126 -16 266h272q-16 -136 -16 -268v-800q0 -144 16 -266h-272z" />
<glyph unicode="J" horiz-adv-x="706" d="M4 -132q220 40 308 196q70 124 70 366v690q-166 0 -292 -14v228h550q-16 -120 -16 -262t9 -343t9 -215q0 -332 -92 -514q-122 -242 -450 -356z" />
<glyph unicode="K" horiz-adv-x="948" d="M64 0q24 208 24 482l-8 584q0 156 -16 268h272q-16 -134 -16 -254v-242q96 130 202 273t172 259l194 -158q-92 -86 -191 -223t-187 -263q6 -8 115 -175t174 -258t147 -183l-220 -150q-62 142 -180 315t-226 329l-2 -252q0 -214 18 -352h-272z" />
<glyph unicode="L" horiz-adv-x="784" d="M64 0q16 108 16 266v802q0 126 -16 266h272q-16 -136 -16 -268v-854h152q154 0 288 14v-226h-696z" />
<glyph unicode="M" horiz-adv-x="1248" d="M2 1226l224 150q52 -132 171 -301t225 -317q42 62 134 190q197 274 274 428l216 -150q-57 -57 -122 -148l-8 -594q0 -283 24 -484h-272q16 108 16 266v490l-270 -394l-262 394l-2 -346q0 -248 18 -410h-266q16 108 16 266v812q-12 16 -45 62t-71 86z" />
<glyph unicode="N" horiz-adv-x="1018" d="M2 1234l216 150q56 -116 150 -252q88 -120 186 -254t152 -232v149q0 75 1 232v15q0 149 -19 292h266q-16 -136 -16 -268l-8 -584q0 -284 24 -482h-266q18 156 18 254q-20 30 -159 223t-211 313l-2 -396q0 -214 18 -394h-264q16 132 16 266v846q-55 72 -102 122z" />
<glyph unicode="O" horiz-adv-x="1072" d="M44 667q0 683 492 683t492 -684q0 -296 -96 -466q-122 -216 -396 -216q-492 0 -492 683zM298 665q0 -195 32 -297q54 -174 207 -174t207 172q32 102 32 303t-30 297q-54 176 -207 176t-207 -174q-34 -108 -34 -303z" />
<glyph unicode="P" horiz-adv-x="898" d="M64 0q16 140 16 266v800q0 156 -16 268h400q410 0 410 -340q0 -352 -450 -544l-104 160v-344q0 -144 16 -266h-272zM320 650q132 48 210 118q102 92 102 210q0 86 -58 118q-42 24 -136 24h-118v-470z" />
<glyph unicode="Q" horiz-adv-x="1112" d="M64 668q0 682 492 682t492 -684q0 -440 -206 -598q41 -100 126 -214l-238 -112q-27 111 -92 248q-10 -4 -31 -4t-33 -2h-20q-272 0 -394 216q-96 170 -96 468zM318 661q0 -195 30 -293q54 -174 202 -174q-32 64 -84 144l204 102q26 -84 60 -152q66 109 66 342.5 t-32 335.5q-56 176 -207 176t-205 -176q-34 -110 -34 -305z" />
<glyph unicode="R" horiz-adv-x="962" d="M64 0q16 140 16 266v818q0 130 -16 250h384q200 0 300 -72q118 -88 118 -284q0 -231 -202 -412q75 -128 114 -202q84 -157 182 -278l-226 -128q-134 321 -303 565q-59 85 -111 139v-485q0 -73 16 -177h-272zM320 706l170 126l44 -70q94 103 94 198.5t-47 128.5t-145 33 h-116v-416z" />
<glyph unicode="S" horiz-adv-x="896" d="M44 24v256q147 -80 265.5 -80t194.5 42t76 129t-126 188t-246 199q-132 126 -132 267t103 229t242.5 88t308.5 -62v-238q-166 92 -287 92t-121 -88q0 -64 132 -166q202 -154 244 -198q134 -136 134 -282q0 -202 -145 -313t-355 -111q-126 0 -288 48z" />
<glyph unicode="T" horiz-adv-x="872" d="M-22 1106v228h906v-228q-131 14 -226 14h-108l-8 -614q0 -284 24 -506h-270q14 154 14 266v854q-225 0 -332 -14z" />
<glyph unicode="U" horiz-adv-x="1072" d="M44 553q0 231 84 447t236 378l184 -150q-258 -300 -258 -656q0 -146 48 -242q64 -128 185.5 -128t228.5 124l8 560q0 244 -22 448h270q-24 -208 -24 -482l8 -586q0 -126 16 -266h-244v84q-106 -100 -268 -100q-228 0 -348 182q-104 156 -104 387z" />
<glyph unicode="V" horiz-adv-x="1036" d="M2 1294l254 64q24 -226 103 -513t153 -551q38 140 108 379t105 379t61 308l248 -68q-114 -280 -245 -761t-145 -531h-268q-36 126 -127 465t-132 479t-115 350z" />
<glyph unicode="W" horiz-adv-x="1438" d="M2 1298l262 54q0 -192 57 -439t111 -473l166 704q0 16 -46 154l262 54q16 -196 78 -441t122 -471q22 104 68 316t68 331t34 265l252 -54q-84 -300 -167 -691t-129 -607h-246l-176 726l-184 -726h-242q-4 24 -68 355t-112 541t-110 402z" />
<glyph unicode="X" horiz-adv-x="1052" d="M32 92q94 110 188 284t178 332q-84 176 -147 301t-137 225l228 126q39 -112 196 -432q58 106 121 223t99 209l214 -124q-56 -76 -95 -144t-209 -384q44 -82 118 -228t118 -223t116 -173l-244 -118q-40 120 -114 264q-92 170 -134 252q-30 -56 -129 -223t-143 -291z" />
<glyph unicode="Y" horiz-adv-x="980" d="M2 1244l240 118q44 -150 118 -304t126 -256q70 138 150 294t118 270l224 -130q-104 -150 -218 -359t-156 -337q-6 -18 -6 -203t22 -343h-272q16 140 16 266v278l-244 500q-74 146 -118 206z" />
<glyph unicode="Z" horiz-adv-x="942" d="M64 0v204q94 126 159 238t184 335t187 343h-244q-108 0 -226 -16v230h752v-202q-128 -186 -266 -436t-266 -484h242q158 0 292 14v-226h-814z" />
<glyph unicode="[" horiz-adv-x="518" d="M64 -170q16 118 16 266l14 824q0 354 -30 584h390v-212l-134 12v-1276q22 0 134 14v-212h-390z" />
<glyph unicode="\" horiz-adv-x="680" d="M0 1338l200 100q42 -200 98 -377t161 -471t137 -389q53 -156 84 -211l-198 -94q-10 18 -29 101t-19 85l-362 1084q-39 112 -72 172z" />
<glyph unicode="]" horiz-adv-x="518" d="M64 42q103 -14 134 -14v1276l-134 -12v212h390q-16 -140 -16 -266l-12 -806q0 -338 28 -602h-390v212z" />
<glyph unicode="^" horiz-adv-x="854" d="M64 872q30 46 55 96l45 90q-4 -6 7 16t28 58t38 80t40 83t31 66t14 31h198q32 -74 59 -131l47 -99q77 -162 164 -288l-214 -36q-26 88 -47 134t-37 85q-52 127 -72 161q-18 -44 -37 -81t-37 -81q-52 -110 -74 -216z" />
<glyph unicode="_" horiz-adv-x="1000" d="M0 -266h1000v-194h-1000v194z" />
<glyph unicode="`" horiz-adv-x="402" d="M64 1302l158 88l116 -298l-100 -52z" />
<glyph unicode="a" horiz-adv-x="814" d="M44 271q0 129 97 213t241 84q68 0 132 -18v24q0 72 -37 101t-121.5 29t-231.5 -58v210q169 40 272 40q192 0 266 -80t74 -274l-2 -250q0 -191 16 -292h-224v78q-103 -94 -217.5 -94t-189.5 79t-75 208zM272 285q0 -49 27 -74t66 -25t71 12t78 54v120q-44 14 -100 14 t-99 -26t-43 -75z" />
<glyph unicode="b" horiz-adv-x="882" d="M64 0q12 84 12 226l12 666q0 180 -4 248t-20 194h254q-14 -106 -14 -228v-274q92 60 192 60q166 0 254 -131t88 -307t-84 -306q-100 -154 -270 -154q-118 0 -194 84v-78h-226zM304 268q64 -64 142 -64t122 88q34 68 34 163t-28 153q-40 80 -117 80t-153 -68v-352z" />
<glyph unicode="c" horiz-adv-x="732" d="M44 428q0 188 108 327t294 139q110 0 216 -58v-224q-93 80 -187.5 80t-144.5 -75t-50 -177t50 -176t150.5 -74t207.5 98v-242q-120 -60 -240 -60q-182 0 -293 127t-111 315z" />
<glyph unicode="d" horiz-adv-x="884" d="M44 426q0 176 88 312q100 156 274 156q90 0 174 -52v222q0 144 -14 270h254q-14 -106 -14 -228l-10 -630q0 -268 24 -476h-226v86q-98 -94 -212 -94q-162 0 -250 129t-88 305zM282 424q0 -94 35 -161t110 -67t153 82v360q-68 56 -126 56q-90 0 -136 -98q-36 -78 -36 -172 z" />
<glyph unicode="e" horiz-adv-x="830" d="M44 438q0 196 97 326t271 130t264 -109t90 -285q0 -56 -10 -122h-470q0 -92 56 -146t139 -54t146 32t137 88l-4 -242q-148 -74 -282 -74q-208 0 -321 130t-113 326zM284 556h268q0 158 -132 158q-68 0 -102 -44t-34 -114z" />
<glyph unicode="f" horiz-adv-x="562" d="M2 668v212h100q0 214 54 320q74 146 270 146q80 0 152 -26v-206q-72 38 -122 38q-82 0 -110 -72q-18 -46 -18 -142v-58h212v-212q-102 12 -202 12h-10l-4 -354q0 -214 16 -326h-252q14 104 14 226v450q-36 0 -100 -8z" />
<glyph unicode="g" horiz-adv-x="848" d="M44 558q0 162 95 251t247 89l218 -22q76 0 190 22v-206l-112 12q32 -74 32 -142q0 -142 -96 -229t-240 -87l-44 -86q90 34 198 34t190 -75t82 -197q0 -200 -196 -316q-154 -92 -380 -114l-56 218h32q112 0 226 46q146 58 146 154q0 44 -37 64t-83 20q-111 0 -254 -80 l-136 140l130 236q-152 106 -152 268zM250 571q0 -63 35 -105t97 -42t92 43t30 107t-32 104t-94 40t-95 -42t-33 -105z" />
<glyph unicode="h" horiz-adv-x="910" d="M64 0q12 84 12 226l12 666q0 180 -4 248t-20 194h254q-14 -96 -14 -206v-306q104 72 210 72q166 0 259 -128t93 -316t-90 -377t-244 -347l-178 152q126 100 201 257t75 321q0 94 -42 162t-120.5 68t-163.5 -62l-4 -314q0 -169 18 -310h-254z" />
<glyph unicode="i" horiz-adv-x="420" d="M64 1196q0 60 43 103t103 43t103 -43t43 -103t-42 -104t-102 -44t-104 44t-44 104zM84 0q12 96 12 194v478q0 64 -12 208h254q-14 -92 -14 -204v-450q0 -122 14 -226h-254z" />
<glyph unicode="j" horiz-adv-x="518" d="M-86 -312q156 80 217 232t61 322t6 362q0 176 -20 276h256q-14 -115 -14 -241v-181q0 -54 2 -106q0 -378 -99 -552t-295 -300zM162 1196q0 60 43 103t103 43t103 -43t43 -103t-42 -104t-102 -44t-104 44t-44 104z" />
<glyph unicode="k" horiz-adv-x="802" d="M64 0q18 205 18 427.5t-2 374.5t-3 285t-13 247h254q-14 -73 -14 -206v-468q136 146 161 175t65 87l168 -160q-70 -61 -198 -192q92 -166 157 -280t143 -212l-214 -122q-40 112 -123 254t-159 270l-2 -200q0 -152 16 -280h-254z" />
<glyph unicode="l" horiz-adv-x="382" d="M64 0q12 102 12 204v908q0 110 -12 222h254q-14 -96 -14 -206v-902q0 -122 14 -226h-254z" />
<glyph unicode="m" horiz-adv-x="1306" d="M64 0l14 576q0 164 -14 304h232v-64q95 74 192 74q99 0 192 -70q121 76 224 76q170 0 264 -123t94 -314t-89 -380t-245 -353l-172 148q120 92 194 261t74 329q0 92 -40 156t-126 64q-46 0 -98 -24q20 -87 20 -228l-6 -272q0 -90 8 -160h-250q12 114 12 226v262 q0 98 -12 130q-24 66 -104 66q-37 0 -124 -48l-4 -320q0 -172 18 -316h-254z" />
<glyph unicode="n" d="M64 0q26 202 26 422t-26 458h230v-72q108 86 220 86q170 0 260 -126t90 -316t-88 -376t-244 -350l-176 150q122 96 197 257t75 319q0 96 -40 165t-118.5 69t-165.5 -68l-2 -310q0 -170 16 -308h-254z" />
<glyph unicode="o" horiz-adv-x="904" d="M44 440q0 192 110 322t299 130t298 -130t109 -322t-110 -323t-297 -131t-298 131t-111 323zM280 439q0 -101 34 -169q46 -90 139 -90t137 88q34 68 34 171t-34 171q-46 90 -138 90t-132 -80t-40 -181z" />
<glyph unicode="p" horiz-adv-x="882" d="M64 -462q12 110 12 199v163q0 74 2 164l2 84q6 234 6 393.5t-22 338.5h224v-82q112 86 220 86q162 0 246 -127t84 -303t-95 -322t-267 -146q-80 0 -172 52v-282q0 -109 14 -218h-254zM304 248q71 -60 121 -60q94 0 141 94q36 81 36 172.5t-24 140.5q-45 91 -126 91 q-73 0 -148 -84v-354z" />
<glyph unicode="q" horiz-adv-x="872" d="M44 420q0 172 84 306q98 156 264 156q108 0 190 -76v74h226q-24 -216 -24 -488l10 -628q0 -122 14 -226h-254q14 112 14 318v192q-97 -62 -190 -62q-162 0 -248 131t-86 303zM280 425q0 -93 28 -151q38 -78 109 -78t151 68v346q-57 76 -133.5 76t-115.5 -84t-39 -177z " />
<glyph unicode="r" horiz-adv-x="526" d="M64 0q12 100 12 204v450q0 114 -12 226h226v-78q76 84 162 84q40 0 82 -16v-218q-51 34 -105.5 34t-124.5 -62v-398q0 -122 14 -226h-254z" />
<glyph unicode="s" horiz-adv-x="758" d="M64 40v224q139 -76 267.5 -76t128.5 72q0 38 -185 141t-185 249q0 120 83 183t209 63q52 0 77 -4t169 -36v-206q-156 66 -239 66t-83 -46q0 -28 194 -134t194 -256t-105 -223t-244 -73t-281 56z" />
<glyph unicode="t" horiz-adv-x="544" d="M10 668v212h96q0 76 -14 144l252 124q-16 -78 -16 -250v-18h180v-212q-114 12 -164 12h-14v-342q0 -70 14 -104q22 -54 77 -54t123 40v-194q-90 -40 -186 -40q-158 0 -220 128q-48 98 -48 282l10 280z" />
<glyph unicode="u" horiz-adv-x="876" d="M32 394q0 152 46 276t130 244l208 -104q-70 -66 -111 -172t-41 -202t39 -171t116.5 -75t150.5 82v382q0 114 -12 226h254q-14 -96 -14 -204v-450q0 -120 14 -226h-224v76q-108 -88 -214 -88q-164 0 -253 127t-89 279z" />
<glyph unicode="v" horiz-adv-x="790" d="M2 836l244 70q18 -126 72 -310t82 -280q42 144 89 305t63 285l236 -70q-76 -158 -147 -392t-135 -444h-224q-8 22 -64 216q-121 419 -216 620z" />
<glyph unicode="w" horiz-adv-x="1192" d="M2 838l242 68q14 -116 60 -293t70 -269q22 94 63 257t53 279h212q12 -116 50 -266q50 -178 72 -262q6 24 67 226t61 328l238 -64q-68 -160 -133 -395t-121 -447h-230l-112 404l-106 -404h-234q-18 64 -71 267t-90 326t-91 245z" />
<glyph unicode="x" horiz-adv-x="854" d="M32 108q62 62 145 174t127 170q-172 241 -238 316l196 140q44 -83 170 -272q44 66 93 139t75 135l188 -140q-71 -78 -236 -302q172 -255 270 -356l-202 -148q-32 68 -92 162q-72 104 -104 152q-145 -211 -192 -314z" />
<glyph unicode="y" horiz-adv-x="810" d="M2 834l242 72q22 -156 75 -326t89 -284q56 202 96 348t60 262l244 -72q-33 -63 -78 -204l-352 -1122l-226 78q46 92 76 191t66 215q-14 40 -83 262t-108 334t-101 246z" />
<glyph unicode="z" horiz-adv-x="768" d="M64 0v190q94 106 211 286t135 208h-118q-100 0 -200 -12v208h598v-178q-78 -104 -171 -240t-179 -262h190q78 0 174 10v-210h-640z" />
<glyph unicode="{" horiz-adv-x="688" d="M64 448v186q68 10 121 66t53 166l-2 160q-4 246 98 325q50 39 123 50t167 15l-2 -206q-82 18 -119 -15t-37 -133v-192q0 -138 -48 -217t-154 -113v2q106 -34 154 -113t48 -217v-200q0 -100 37 -134t119 -12l2 -204q-94 4 -166 13t-122 45q-104 75 -100 318l2 178 q0 110 -53 166t-121 66z" />
<glyph unicode="|" horiz-adv-x="382" d="M64 -296q12 96 12 194v1270q0 64 -12 208h254q-14 -92 -14 -204v-1242q0 -122 14 -226h-254z" />
<glyph unicode="}" horiz-adv-x="688" d="M64 -338l2 204q82 -22 119 12t37 134v200q0 138 48 217t154 113v-2q-106 34 -154 113t-48 217v192q0 100 -37 133t-119 15l-2 206q92 -4 166 -15t124 -50q102 -79 98 -325l-2 -160q0 -110 53 -166t121 -66v-186q-68 -10 -121 -66t-53 -166l2 -178q4 -243 -100 -318 q-50 -36 -123 -45t-165 -13z" />
<glyph unicode="~" horiz-adv-x="1234" d="M64 568q27 153 110 255q82 101 180 101q105 0 244 -59q54 -23 105 -41t100 -18t64 36t23 82h280q-46 -248 -196 -329q-50 -27 -109 -27t-120 18t-120 41q-151 59 -198 59t-58 -34t-19 -84h-286z" />
<glyph unicode="&#xa1;" horiz-adv-x="434" d="M64 1193q0 65 44 109t108 44t109 -45t45 -107t-44 -108t-109 -46t-109 44t-44 109zM88 0q24 192 24 482l-4 482h214l-4 -458q0 -304 26 -506h-256z" />
<glyph unicode="&#xa2;" horiz-adv-x="760" d="M64 732q0 138 66 237t196 127l-8 160h200l-8 -152q42 0 75 -12t85 -38v-220q-129 80 -206.5 80t-120.5 -58t-43 -140q0 -150 106 -246t254 -96q24 0 36 2l-68 -228q-40 3 -118 26l8 -112h-200q8 88 8 196q-262 176 -262 474z" />
<glyph unicode="&#xa3;" horiz-adv-x="910" d="M64 180q190 102 190 318l-2 42l-178 -12v236q108 -12 144 -12q-54 158 -64 196t-10 94q0 144 100 225t242 81t296 -64v-232q-155 88 -266 88q-134 0 -134 -122q0 -68 66 -266h36q130 0 244 14v-238q-106 14 -228 14h-20l4 -52q0 -156 -118 -278h216q144 0 264 14v-226 h-726z" />
<glyph unicode="&#xa4;" horiz-adv-x="1200" d="M64 116q64 56 118 118t70 78q-82 111 -82 254q0 141 84 254l-54 62q-64 70 -136 136l158 140q70 -99 122 -158l48 -56q96 54 206 54t210 -52l48 54q52 59 122 158l158 -140q-83 -76 -188 -196q86 -116 86 -256q0 -143 -84 -256l56 -62q69 -78 130 -132l-158 -140 q-56 77 -106 140q-16 16 -32 34l-32 36q-94 -52 -207 -52t-209 54l-64 -72q-50 -63 -106 -140zM378 568q0 -90 66 -156t156 -66t156 66t66 156t-66 156t-156 66t-156 -66t-66 -156z" />
<glyph unicode="&#xa5;" horiz-adv-x="1114" d="M64 1252l242 114q31 -120 88.5 -240t90.5 -190t69 -138q28 50 52 105t66 138q104 206 150 335l228 -124q-103 -155 -160.5 -262.5t-101.5 -179.5t-74 -156q103 0 218 10v-190q-104 12 -264 12v-90q154 0 264 10v-182l-262 10q0 -22 2 -53t3 -64q2 -81 9 -117h-272 q2 24 4 57l4 66t4 63t2 48h-87q-47 0 -95 -4l-72 -6v182l256 -10v90q-100 0 -256 -12v190q115 -10 210 -10q-27 72 -44 102q-36 62 -78 148q-111 228 -196 348z" />
<glyph unicode="&#xa6;" horiz-adv-x="344" d="M64 0q12 132 12 178v218q0 96 -12 196h216q-12 -100 -12 -202v-200q0 -96 12 -190h-216zM64 888q12 132 12 178v214q0 96 -12 196h216q-12 -100 -12 -202v-196q0 -96 12 -190h-216z" />
<glyph unicode="&#xa7;" horiz-adv-x="812" d="M64 1024q0 96 56 169t148 109q189 74 438 -6l26 -246q-42 42 -152 63q-48 9 -99 9t-93 -9q-94 -20 -94 -81q0 -38 34 -67t84 -57t109 -59t110 -70q117 -89 117 -215q0 -117 -111 -224q-31 -30 -63 -50q107 -79 149 -193q15 -41 15 -105t-35 -121t-90 -92t-125 -51 t-169 -16t-241 56v208q46 -53 226 -60q109 -4 161 34q27 20 27 56q0 59 -107 143q-47 37 -101 77t-100 88q-108 113 -108 226q0 93 56 191q20 35 48 57q-46 28 -81 84t-35 152zM298 560q0 -16 9 -37t26 -45q39 -54 87 -88q64 26 100 112q10 24 10 41t-10 35t-26 38 q-35 43 -88 68q-42 -8 -66 -37t-33 -50t-9 -37z" />
<glyph unicode="&#xa8;" horiz-adv-x="688" d="M64 1196q0 48 32 80t81 32t81 -32t32 -80t-33 -81t-80 -33t-80 33t-33 81zM396 1194q0 48 33 81t80 33t81 -32t34 -79t-34 -81t-80 -34t-80 32t-34 80z" />
<glyph unicode="&#xa9;" horiz-adv-x="1494" d="M64 684q0 284 199 483q93 93 217 147t266 54t266 -54t217 -147t147 -217t54 -266t-54 -266t-147 -217q-199 -199 -483 -199t-483 199t-199 483zM214 684q0 -222 156 -378t378 -156q224 0 380 156t156 378q0 224 -156 380t-380 156q-222 0 -378 -156t-156 -380zM408 684 q0 166 104 278q107 116 277 116q91 0 187 -54v-206q-78 60 -176 60q-86 0 -134 -63q-44 -58 -44 -146.5t39 -140.5t96 -67q123 -33 243 87v-224q-176 -102 -354 -26q-102 44 -170 143t-68 243z" />
<glyph unicode="&#xaa;" horiz-adv-x="736" d="M64 822q0 120 83 192t207 72q62 0 116 -14v22q0 60 -33 85t-106.5 25t-196.5 -50v180q140 34 227 34t144 -17t91 -53q64 -68 64 -232l-2 -110v-217q0 -66 14 -141h-194v68q-88 -84 -188 -84q-99 0 -162 69q-64 70 -64 171zM260 834q0 -76 97 -76q51 0 113 56v102 q-40 12 -89 12t-85 -23t-36 -71z" />
<glyph unicode="&#xab;" horiz-adv-x="688" d="M64 480l210 340l100 -54l-116 -292l116 -284l-106 -48zM314 480l210 340l100 -54l-116 -292l116 -284l-106 -48z" />
<glyph unicode="&#xac;" horiz-adv-x="1168" d="M64 362v216q98 -12 202 -12h632q96 0 190 12v-241q0 -169 16 -273h-254q12 96 12 194v116h-602q-98 0 -196 -12z" />
<glyph unicode="&#xad;" horiz-adv-x="672" d="M64 440v238q100 -12 202 -12h152q96 0 190 12v-238q-132 12 -178 12h-170q-96 0 -196 -12z" />
<glyph unicode="&#xae;" horiz-adv-x="938" d="M64 990q0 165 119 282q118 116 287 116q174 0 290 -112q114 -110 114 -283q0 -85 -32 -158t-87 -126q-119 -115 -289 -115q-172 0 -288 112q-114 110 -114 284zM178 992q0 -128 82 -214t204 -86q126 0 211 89q83 87 83 207q0 60 -21 116t-59 97q-82 89 -210 89 q-123 0 -207 -86q-83 -85 -83 -212zM292 796q8 38 8 82v252q0 41 -8 78h174q130 0 168 -55q16 -23 16 -61q0 -76 -90 -110q32 -46 58 -84t60 -72l-96 -46q-36 54 -81 119t-95 101v-122q0 -47 8 -82h-122zM406 1014l76 40l20 -24q42 32 42 64q0 50 -88 50h-50v-130z" />
<glyph unicode="&#xaf;" horiz-adv-x="1000" d="M0 1526v194h1000v-194h-1000z" />
<glyph unicode="&#xb0;" horiz-adv-x="782" d="M64 1198q0 137 97 232q96 94 232 94q67 0 127 -25t104 -69q94 -94 94 -232q0 -133 -96 -231q-95 -97 -230 -97q-134 0 -231 97t-97 231zM242 1199q0 -63 44 -107t106 -44t105 44t43 107t-43 105t-105 42t-106 -42t-44 -105z" />
<glyph unicode="&#xb1;" horiz-adv-x="1066" d="M64 20v236q86 -12 172 -12h574q98 0 192 12v-236q-112 14 -200 14h-536q-72 0 -202 -14zM64 612v234q86 -12 172 -12h182v140q0 42 -4 69t-8 75h254q-14 -84 -14 -140v-144h164q98 0 192 12v-234q-112 14 -200 14h-158v-124q0 -62 16 -166h-254q2 24 5 39t4 28q3 39 3 67 v156h-152q-72 0 -202 -14z" />
<glyph unicode="&#xb2;" horiz-adv-x="616" d="M64 598v148q41 41 134 167q140 190 140 245q0 22 -16 34t-38 12q-79 0 -178 -86v202q110 50 201 50t159 -54t68 -150q0 -59 -56 -166q-88 -151 -160 -232h99q57 0 135 12v-182h-488z" />
<glyph unicode="&#xb3;" horiz-adv-x="578" d="M64 774q132 0 195 36t63 89t-42 53q-28 0 -45 -9t-47 -27l-70 166q75 26 106 44h-2q34 28 34 53t-38 25t-148 -62v192q94 40 177 40t139 -46t56 -120t-28 -112q100 -48 100 -176q0 -164 -136 -252q-112 -74 -302 -74z" />
<glyph unicode="&#xb4;" horiz-adv-x="402" d="M64 1492l116 298l158 -88l-174 -264z" />
<glyph unicode="&#xb5;" horiz-adv-x="914" d="M64 -224q22 407 22 589.5t-1 291.5t-21 223h254l-8 -592v-14q93 -82 141.5 -82t79.5 23t50 58q37 68 37 138.5t-11 124.5t-30 104q-40 105 -111 172l208 104q176 -251 176 -502q0 -173 -85 -292q-95 -132 -257 -132q-101 0 -198 72v-114q0 -116 8 -172h-254z" />
<glyph unicode="&#xb6;" horiz-adv-x="892" d="M64 1052q0 121 83 202q82 80 201 80h480q-2 -28 -3 -46t-3 -36t-3 -40t-3 -63t-3 -120t-1 -172v-191l2 -333q0 -65 1 -109t13 -224h-140q10 165 10 250v946q0 20 -2 38h-98q-2 -16 -2 -33v-33l-2 -369q0 -408 8 -637l6 -162h-140l8 125v59l-2 616q-56 -30 -121 -30 t-116 20t-89 57q-84 82 -84 205z" />
<glyph unicode="&#xb7;" horiz-adv-x="498" d="M96 601q0 65 44 109t109 44t109 -44t44 -109t-44 -109t-107 -44t-109 44t-46 109z" />
<glyph unicode="&#xb8;" horiz-adv-x="462" d="M64 -192q42 -14 80 -6q73 15 80 60q4 22 -13 35t-31 17l14 224h156l-6 -196q54 -54 54 -111t-30 -94t-76 -58q-88 -40 -216 -31z" />
<glyph unicode="&#xb9;" horiz-adv-x="454" d="M64 1116v144q126 0 176 110h150q-18 -94 -18 -231v-377l2 -62l12 -100h-228q14 121 14 182v334h-108z" />
<glyph unicode="&#xba;" horiz-adv-x="680" d="M64 960q0 256 145 335q53 29 132 29t132 -30t85 -80q58 -91 58 -254q0 -368 -276 -368q-146 0 -216 111q-60 96 -60 257zM260 921q0 -73 20 -119t60 -46q82 0 82 204q0 97 -9 128q-19 62 -73 76q-71 -19 -78 -137q-2 -33 -2 -106z" />
<glyph unicode="&#xbb;" horiz-adv-x="688" d="M64 196l116 292l-116 284l106 48l204 -338l-210 -340zM314 196l114 292l-114 284l106 48l204 -338l-210 -340z" />
<glyph unicode="&#xbc;" horiz-adv-x="1494" d="M64 1268v96q154 0 226 130h118q-10 -57 -10 -170v-664q4 -16 5 -38t5 -40h-214q16 74 16 180v506h-146zM256 116q24 34 47 76t58 102t89 167t108 220t102 218t89 197q110 246 161 400l186 -124q-72 -100 -240 -444q-156 -307 -276 -590q-138 -308 -138 -340zM730 356 q139 153 322 432q46 70 74 132l192 -78q-42 -42 -84 -101t-88 -125t-90 -124t-84 -118h184q0 80 -10 190h200q-16 -68 -16 -188l100 6v-176l-100 6q0 -136 16 -210h-200q10 100 10 212q-22 4 -68 4l-244 -8z" />
<glyph unicode="&#xbd;" horiz-adv-x="1492" d="M64 1268v96q154 0 226 130h118q-10 -57 -10 -170v-664q4 -16 5 -38t5 -40h-214q16 74 16 180v506h-146zM256 116q24 34 47 76t58 102t89 167t108 220t102 218t89 197q110 246 161 400l186 -124q-72 -100 -240 -444q-156 -307 -276 -590q-138 -308 -138 -340zM856 2v152 q42 44 97 101t121 145t109 142t43 94t-35 65t-81 25q-99 0 -198 -72v194q108 52 192 52q149 0 240 -68q80 -56 80 -160q0 -67 -72 -186q-35 -63 -131.5 -175.5t-126.5 -148.5h178q101 0 156 10v-170h-572z" />
<glyph unicode="&#xbe;" horiz-adv-x="1638" d="M64 756q152 0 234 39t112 69t30 75t-29 71t-82 26t-105 -30l-70 130q85 34 118 52q72 40 72 93t-104 53q-69 0 -170 -52v172q110 40 216 40t174 -50t68 -129.5t-66 -154.5q76 -12 124 -66t48 -140t-44 -167t-136 -133q-144 -74 -378 -74zM400 116q24 34 47 76t58 102 t89 167t108 220t102 218t89 197q110 246 161 400l186 -124q-72 -100 -240 -444q-156 -307 -276 -590q-138 -308 -138 -340zM874 356q139 153 322 432q46 70 74 132l192 -78q-42 -42 -84 -101t-88 -125t-90 -124t-84 -118h184q0 80 -10 190h200q-16 -68 -16 -188l100 6v-176 l-100 6q0 -136 16 -210h-200q10 100 10 212q-22 4 -68 4l-244 -8z" />
<glyph unicode="&#xbf;" horiz-adv-x="736" d="M64 277q0 125 87 243t183 248q10 43 10 124v74h224l2 -118q0 -176 -138 -336t-138 -211t37 -84t85 -33q92 0 256 108v-232q-148 -76 -284 -76t-230 84t-94 209zM304 1195q0 65 44 109t109 44t110 -45t45 -109t-44 -108t-108 -44t-110 44t-46 109z" />
<glyph unicode="&#xc0;" horiz-adv-x="1106" d="M0 36q47 105 128 380l-58 -8v226l120 -4l210 704h314q34 -118 111 -416t139 -502t142 -376l-262 -78q-12 106 -49 243t-57 213h-372q-8 -24 -52 -180t-62 -276zM414 1704l158 88l118 -298l-102 -54zM422 628h262l-130 482z" />
<glyph unicode="&#xc1;" horiz-adv-x="1106" d="M0 36q47 105 128 380l-58 -8v226l120 -4l210 704h314q34 -118 111 -416t139 -502t142 -376l-262 -78q-12 106 -49 243t-57 213h-372q-8 -24 -52 -180t-62 -276zM416 1492l116 298l158 -88l-174 -264zM422 628h262l-130 482z" />
<glyph unicode="&#xc2;" horiz-adv-x="1106" d="M0 36q47 105 128 380l-58 -8v226l120 -4l210 704h314q34 -118 111 -416t139 -502t142 -376l-262 -78q-12 106 -49 243t-57 213h-372q-8 -24 -52 -180t-62 -276zM278 1488l198 248h152l198 -248l-158 -76l-116 198l-116 -198zM422 628h262l-130 482z" />
<glyph unicode="&#xc3;" horiz-adv-x="1106" d="M0 36q59 135 128 380q-14 -2 -29 -4t-29 -4v226l120 -4l210 704h314q60 -219 106 -395q84 -325 145 -528t141 -371l-262 -78q-13 115 -34.5 193.5t-31.5 117.5t-18 65q-11 35 -22 80h-372l-60 -210t-54 -246zM210 1434q15 112 84 183q61 63 126 63q41 0 96 -32 q105 -60 136 -60q48 0 58 92h184q-19 -116 -84 -183q-61 -63 -126 -63q-32 0 -68 19t-60 33q-69 40 -104 40q-48 0 -58 -92h-184zM422 628h262l-130 482q-34 -120 -66 -241t-66 -241z" />
<glyph unicode="&#xc4;" horiz-adv-x="1106" d="M0 36q59 135 128 380q-14 -2 -29 -4t-29 -4v226l120 -4l210 704h314q60 -219 106 -395q84 -325 145 -528t141 -371l-262 -78q-13 115 -34.5 193.5t-31.5 117.5t-18 65q-11 35 -22 80h-372l-60 -210t-54 -246zM274 1557q0 49 32 81t80 32t81 -33t33 -80t-33 -80t-81 -33 t-80 32t-32 81zM422 628h262l-130 482q-34 -120 -66 -241t-66 -241zM606 1556q0 48 33 81t80 33t81 -32t34 -79t-34 -81t-80 -34t-80 32t-34 80z" />
<glyph unicode="&#xc5;" horiz-adv-x="1106" d="M0 36q59 135 128 380q-14 -2 -29 -4t-29 -4v226l120 -4l210 704h314q60 -219 106 -395q84 -325 145 -528t141 -371l-262 -78q-13 115 -34.5 193.5t-31.5 117.5t-18 65q-11 35 -22 80h-372l-60 -210t-54 -246zM362 1626q0 123 118 175q34 15 74 15q80 0 135 -55t55 -135 q0 -77 -56 -135q-55 -57 -134 -57q-78 0 -135 57t-57 135zM422 628h262l-130 482q-34 -120 -66 -241t-66 -241zM466 1626q0 -36 26 -62t62 -26t61 26t25 62t-25 61t-61 25t-62 -25t-26 -61z" />
<glyph unicode="&#xc6;" horiz-adv-x="1562" d="M0 54q45 64 120.5 217t193.5 382t184 372t118 309h838v-228q-131 14 -226 14h-204v-372h126q128 0 240 14v-230q-102 12 -204 12h-162v-332h214q140 0 260 14v-226h-730q16 140 16 266v250q-224 -34 -373 -183t-177 -373zM526 634q131 96 258 96v432z" />
<glyph unicode="&#xc7;" horiz-adv-x="846" d="M44 816q0 216 137 374t369 158q116 0 232 -44v-234q-116 58 -206 58q-130 0 -204 -99t-74 -235q0 -204 137 -380t335 -252l-116 -210l-54 24q-48 22 -86 48l-6 -82q54 -54 54 -110q0 -92 -89 -140t-187 -48l-46 4l-12 160q30 -4 57 -6q37 -3 75 16l28 44q-16 42 -44 52 l14 226q-156 154 -235 307t-79 369z" />
<glyph unicode="&#xc8;" horiz-adv-x="936" d="M64 562v232l74 -8v298q0 116 -16 250h708v-226l-226 12h-226v-338h132q136 0 256 14v-232q-117 14 -204 14h-184v-364h260q116 0 234 12v-226h-750q16 128 16 240v330q-26 0 -74 -8zM328 1704l158 88l118 -298l-102 -54z" />
<glyph unicode="&#xc9;" horiz-adv-x="936" d="M64 562v232l74 -8v298q0 116 -16 250h708v-226l-226 12h-226v-338h132q136 0 256 14v-232q-117 14 -204 14h-184v-364h260q116 0 234 12v-226h-750q16 128 16 240v330q-26 0 -74 -8zM332 1492l116 298l158 -88l-174 -264z" />
<glyph unicode="&#xca;" horiz-adv-x="936" d="M64 562v232l74 -8v298q0 116 -16 250h708v-226l-226 12h-226v-338h132q136 0 256 14v-232q-117 14 -204 14h-184v-364h260q116 0 234 12v-226h-750q16 128 16 240v330q-26 0 -74 -8zM194 1488l198 248h152l198 -248l-158 -76l-116 198l-116 -198z" />
<glyph unicode="&#xcb;" horiz-adv-x="936" d="M64 562v232l74 -8v298q0 116 -16 250h708v-226l-226 12h-226v-338h132q136 0 256 14v-232q-117 14 -204 14h-184v-364h260q116 0 234 12v-226h-750q16 128 16 240v330q-26 0 -74 -8zM186 1557q0 49 32 81t80 32t81 -33t33 -80t-33 -80t-81 -33t-80 32t-32 81zM518 1556 q0 48 33 81t80 33t81 -32t34 -79t-34 -81t-80 -34t-80 32t-34 80z" />
<glyph unicode="&#xcc;" horiz-adv-x="404" d="M64 1704l158 88l118 -298l-102 -54zM66 0q16 108 16 266v802q0 126 -16 266h272q-16 -140 -16 -266v-802q0 -144 16 -266h-272z" />
<glyph unicode="&#xcd;" horiz-adv-x="404" d="M64 1494l118 298l158 -88l-174 -264zM66 0q16 108 16 266v802q0 126 -16 266h272q-16 -140 -16 -266v-802q0 -144 16 -266h-272z" />
<glyph unicode="&#xce;" horiz-adv-x="676" d="M64 1488l198 248h152l198 -248l-158 -76l-116 198l-116 -198zM202 0q16 108 16 266v802q0 126 -16 266h272q-16 -140 -16 -266v-802q0 -144 16 -266h-272z" />
<glyph unicode="&#xcf;" horiz-adv-x="688" d="M64 1557q0 49 32 81t80 32t81 -33t33 -80t-33 -80t-81 -33t-80 32t-32 81zM208 0q16 108 16 266v802q0 126 -16 266h272q-16 -140 -16 -266v-802q0 -144 16 -266h-272zM396 1556q0 48 33 81t80 33t81 -32t34 -79t-34 -81t-80 -34t-80 32t-34 80z" />
<glyph unicode="&#xd0;" horiz-adv-x="1160" d="M64 594v194h478v-194h-478zM164 0q24 208 24 480l-8 586q0 156 -16 268h256v-122l108 164q252 -118 410 -341t158 -491q0 -544 -550 -544h-382zM420 212h70q182 0 268 75t86 267t-116 354t-308 256v-952z" />
<glyph unicode="&#xd1;" horiz-adv-x="1080" d="M64 1234l216 150q56 -116 150 -252q88 -120 186 -254t152 -232v149q0 75 1 232t-19 307h266q-14 -124 -14 -266l-10 -608q0 -260 24 -460h-266q18 156 18 256q-268 363 -368 534l-4 -408q0 -227 18 -382h-264q16 132 16 266v846q-44 62 -102 122zM198 1434q15 112 84 183 q61 63 126 63q41 0 96 -32q105 -60 136 -60q48 0 58 92h184q-19 -116 -84 -183q-61 -63 -126 -63q-32 0 -68 19t-60 33q-69 40 -104 40q-48 0 -58 -92h-184z" />
<glyph unicode="&#xd2;" horiz-adv-x="1112" d="M64 668q0 684 492 684t492 -684t-492 -684t-492 684zM318 666q0 -196 32 -298q54 -174 207 -174t207 174q32 102 32 301t-30 297q-54 176 -206 176t-208 -174q-34 -106 -34 -302zM420 1704l158 88l118 -298l-102 -54z" />
<glyph unicode="&#xd3;" horiz-adv-x="1112" d="M64 668q0 684 492 684t492 -684t-492 -684t-492 684zM318 666q0 -196 32 -298q54 -174 207 -174t207 174q32 102 32 301t-30 297q-54 176 -206 176t-208 -174q-34 -106 -34 -302zM420 1494l118 298l158 -88l-174 -264z" />
<glyph unicode="&#xd4;" horiz-adv-x="1112" d="M64 668q0 684 492 684q272 0 396 -216q96 -172 96 -468q0 -684 -492 -684t-492 684zM284 1488l198 248h152l198 -248l-158 -76l-116 198l-116 -198zM318 615q0 -421 240 -421q152 0 206 174q32 98 32 298t-30 300q-54 176 -205 176q-198 0 -234 -302q-9 -76 -9 -225z" />
<glyph unicode="&#xd5;" horiz-adv-x="1112" d="M64 668q0 684 492 684q272 0 396 -216q96 -172 96 -468q0 -684 -492 -684t-492 684zM216 1434q15 112 84 183q61 63 126 63q41 0 96 -32q105 -60 136 -60q48 0 58 92h184q-19 -116 -84 -183q-61 -63 -126 -63q-32 0 -68 19t-60 33q-69 40 -104 40q-48 0 -58 -92h-184z M318 615q0 -421 240 -421q152 0 206 174q32 98 32 298t-30 300q-54 176 -205 176q-198 0 -234 -302q-9 -76 -9 -225z" />
<glyph unicode="&#xd6;" horiz-adv-x="1112" d="M64 668q0 684 492 684t492 -684t-492 -684t-492 684zM274 1650q0 48 32 80t81 32t81 -32t32 -80t-33 -81t-80 -33t-80 33t-33 81zM318 666q0 -196 32 -298q54 -174 207 -174t207 174q32 102 32 301t-30 297q-54 176 -206 176t-208 -174q-34 -106 -34 -302zM606 1648 q0 48 33 81t80 33t81 -32t34 -80t-33 -81t-80 -33t-81 32t-34 80z" />
<glyph unicode="&#xd7;" horiz-adv-x="934" d="M64 304q123 92 272 236q-101 115 -272 250q40 34 85 81t85 81q127 -159 234 -280q62 64 121 128t111 142l166 -162q-70 -60 -137 -117t-133 -123q85 -75 274 -222q-40 -40 -83 -89t-83 -89q-59 75 -242 270q-30 -34 -65 -72t-68 -74q-82 -89 -105 -124q-40 40 -80 82 t-80 82z" />
<glyph unicode="&#xd8;" horiz-adv-x="1260" d="M64 88q49 59 140 170q0 28 -34 178t-34 230q0 684 492 684q183 0 300 -94l76 126l192 -138q-22 -22 -140 -168q0 -56 33 -198t33 -212q0 -296 -96 -466q-122 -216 -396 -216q-182 0 -298 94l-78 -128zM384 599q0 -27 8 -95l406 560q-60 84 -168 84q-156 0 -212 -176 q-34 -106 -34 -306v-67zM462 270q64 -84 168 -84q164 0 218 190q30 104 30 322q0 22 -4 75t-4 59z" />
<glyph unicode="&#xd9;" horiz-adv-x="1094" d="M64 554q0 232 84 447t238 377l182 -150q-258 -300 -258 -656q0 -146 48 -242q64 -128 194 -128q107 0 222 124l6 536q0 290 -22 472h272q-26 -197 -26 -480l10 -588q0 -144 16 -266h-246v86q-104 -102 -266 -102q-228 0 -350 182q-104 156 -104 388zM404 1704l158 88 l118 -298l-102 -54z" />
<glyph unicode="&#xda;" horiz-adv-x="1094" d="M64 554q0 232 84 447t238 377l182 -150q-258 -300 -258 -656q0 -146 48 -242q64 -128 194 -128q107 0 222 124l6 536q0 290 -22 472h272q-26 -197 -26 -480l10 -588q0 -144 16 -266h-246v86q-104 -102 -266 -102q-228 0 -350 182q-104 156 -104 388zM404 1494l118 298 l158 -88l-174 -264z" />
<glyph unicode="&#xdb;" horiz-adv-x="1094" d="M64 554q0 232 84 447t238 377l182 -150q-258 -300 -258 -656q0 -146 48 -242q64 -128 194 -128q107 0 222 124l6 536q0 290 -22 472h272q-26 -197 -26 -480l10 -588q0 -144 16 -266h-246v86q-104 -102 -266 -102q-228 0 -350 182q-104 156 -104 388zM272 1488l198 248 h152l198 -248l-158 -76l-116 198l-116 -198z" />
<glyph unicode="&#xdc;" horiz-adv-x="1094" d="M64 554q0 232 84 447t238 377l182 -150q-258 -300 -258 -656q0 -146 48 -242q64 -128 194 -128q107 0 222 124l6 536q0 290 -22 472h272q-26 -197 -26 -480l10 -588q0 -144 16 -266h-246v86q-104 -102 -266 -102q-228 0 -350 182q-104 156 -104 388zM322 1557q0 49 32 81 t80 32t81 -33t33 -80t-33 -80t-81 -33t-80 32t-32 81zM654 1556q0 48 33 81t80 33t81 -32t34 -79t-34 -81t-80 -34t-80 32t-34 80z" />
<glyph unicode="&#xdd;" horiz-adv-x="980" d="M2 1250q58 28 119 59t121 59q45 -153 107 -279q91 -190 137 -281q34 70 70 138t74 144q81 163 124 282q74 -41 224 -130q-93 -136 -182 -297q-143 -256 -192 -399q-6 -22 -6 -218t22 -328h-272q16 140 16 266v278l-244 500q-32 58 -56 106t-62 100zM388 1494l118 298 l158 -88l-174 -264z" />
<glyph unicode="&#xde;" horiz-adv-x="954" d="M64 0q4 36 7 57t5 38q4 34 4 189.5t2 312.5t4 250t4 143t2 93t-1 73t-3 60t-7 65t-11 89h254q-4 -52 -1 -81t-5 -69q304 8 434 -84q138 -100 138 -288q0 -189 -80 -354q-67 -138 -207 -227q-77 -49 -179 -93l-104 160l-2 -216q0 -26 8 -58t10 -60h-272zM320 374 q141 53 201.5 110.5t91.5 129.5t38 144t-12 134t-65 92q-47 28 -173 28q-41 0 -81 -6v-632z" />
<glyph unicode="&#xdf;" horiz-adv-x="936" d="M64 534q0 236 31 412t117 280q102 124 284 124q134 0 221 -85t87 -235t-122 -260q94 0 142 -76t48 -176q0 -184 -112 -336t-288 -238l-128 176q118 42 206 143t88 221q0 64 -31 93t-69 29t-94 -14l-66 166q86 30 142 108t56 170q0 48 -22 80t-68 32q-86 0 -133 -107 t-47 -323v-492l2 -58q0 -84 12 -168h-254q6 54 6 130z" />
<glyph unicode="&#xe0;" horiz-adv-x="834" d="M64 271q0 129 98 213t242 84q62 0 132 -16v22q0 72 -37 101t-122.5 29t-232.5 -58v210q142 40 272 40q194 0 267 -79t73 -273l-2 -250q0 -193 16 -294h-224v78q-103 -94 -217.5 -94t-189.5 79t-75 208zM280 1260l158 88l116 -298l-100 -54zM292 278q0 -92 112 -92 q58 0 132 66v120q-48 14 -103 14t-98 -26t-43 -82z" />
<glyph unicode="&#xe1;" horiz-adv-x="834" d="M64 271q0 129 98 213t242 84q62 0 132 -16v22q0 72 -37 101t-122.5 29t-232.5 -58v210q142 40 272 40q194 0 267 -79t73 -273l-2 -250q0 -193 16 -294h-224v78q-103 -94 -217.5 -94t-189.5 79t-75 208zM278 1050l118 298l158 -88l-174 -264zM292 278q0 -92 112 -92 q58 0 132 66v120q-48 14 -103 14t-98 -26t-43 -82z" />
<glyph unicode="&#xe2;" horiz-adv-x="834" d="M64 271q0 129 98 213t242 84q62 0 132 -16v22q0 72 -37 101t-122.5 29t-232.5 -58v210q142 40 272 40q194 0 267 -79t73 -273l-2 -250q0 -193 16 -294h-224v78q-103 -94 -217.5 -94t-189.5 79t-75 208zM142 1072l198 248h152l198 -248l-158 -76l-116 198l-116 -198z M292 278q0 -92 112 -92q58 0 132 66v120q-48 14 -103 14t-98 -26t-43 -82z" />
<glyph unicode="&#xe3;" horiz-adv-x="834" d="M64 271q0 129 98 213t242 84q62 0 132 -16v22q0 72 -37 101t-122.5 29t-232.5 -58v210q142 40 272 40q194 0 267 -79t73 -273l-2 -250q0 -193 16 -294h-224v78q-103 -94 -217.5 -94t-189.5 79t-75 208zM74 996q15 112 84 183q61 63 126 63q41 0 96 -32q105 -60 136 -60 q48 0 58 92h184q-19 -116 -84 -183q-61 -63 -126 -63q-32 0 -68 19t-60 33q-69 40 -104 40q-48 0 -58 -92h-184zM292 278q0 -92 112 -92q58 0 132 66v120q-48 14 -103 14t-98 -26t-43 -82z" />
<glyph unicode="&#xe4;" horiz-adv-x="834" d="M64 271q0 129 98 213t242 84q62 0 132 -16v22q0 72 -37 101t-122.5 29t-232.5 -58v210q142 40 272 40q194 0 267 -79t73 -273l-2 -250q0 -193 16 -294h-224v78q-103 -94 -217.5 -94t-189.5 79t-75 208zM138 1189q0 49 32 81t80 32t81 -33t33 -80t-33 -80t-81 -33t-80 32 t-32 81zM292 278q0 -92 112 -92q58 0 132 66v120q-48 14 -103 14t-98 -26t-43 -82zM470 1188q0 48 33 81t80 33t81 -32t34 -79t-34 -81t-80 -34t-80 32t-34 80z" />
<glyph unicode="&#xe5;" horiz-adv-x="834" d="M64 271q0 129 98 213t242 84q62 0 132 -16v22q0 72 -37 101t-122.5 29t-232.5 -58v210q142 40 272 40q194 0 267 -79t73 -273l-2 -250q0 -193 16 -294h-224v78q-103 -94 -217.5 -94t-189.5 79t-75 208zM226 1188q0 123 118 175q34 15 74 15q80 0 135 -55t55 -135 q0 -77 -56 -135q-55 -57 -134 -57q-78 0 -135 57t-57 135zM292 278q0 -92 112 -92q58 0 132 66v120q-48 14 -103 14t-98 -26t-43 -82zM330 1188q0 -36 26 -62t62 -26t61 26t25 62t-25 61t-61 25t-62 -25t-26 -61z" />
<glyph unicode="&#xe6;" horiz-adv-x="1272" d="M64 265q0 65 26 121t70 96q90 82 228 82q64 0 132 -20q0 96 -37 130t-120 34t-221 -56v204q141 38 260 38q180 0 254 -80q90 78 214 78q159 0 253 -118q85 -107 85 -278q0 -56 -12 -116h-456q4 -90 59 -150t138 -60t142 34t125 84l-4 -234q-148 -72 -270 -72 q-95 0 -142 20q-83 35 -143 86q-7 6 -15 10l-4 -2q-47 -51 -111 -72q-196 -66 -300 -19q-93 41 -132 145q-19 50 -19 115zM278 283q0 -51 27 -77t66 -26t70 14t79 56l-2 102v22q-38 14 -97 14t-101 -27t-42 -78zM738 552h268q-4 72 -30 118t-96 47t-104 -47t-38 -118z" />
<glyph unicode="&#xe7;" horiz-adv-x="772" d="M64 437q0 177 110 317t296 140q104 0 212 -60v-224q-97 80 -188.5 80t-145.5 -76q-48 -79 -48 -176.5t47 -171.5t149.5 -74t211.5 96v-242q-92 -43 -184 -56l-2 -46q48 -36 48 -86q0 -76 -72 -115t-156 -39l-36 2l-10 130l50 -6q28 0 48 8q30 14 30 43t-34 39l4 72 q-156 34 -243 151t-87 294z" />
<glyph unicode="&#xe8;" horiz-adv-x="850" d="M64 438q0 196 97 327t270 131t264 -111t91 -285q0 -52 -4 -80t-4 -42h-472q0 -92 56 -146t163.5 -54t260.5 120l-6 -242q-140 -74 -282 -74q-208 0 -321 130t-113 326zM286 1260l158 88l116 -298l-100 -54zM304 556h268q0 160 -132 160q-68 0 -102 -45t-34 -115z" />
<glyph unicode="&#xe9;" horiz-adv-x="850" d="M64 438q0 196 97 327t270 131t264 -111t91 -285q0 -52 -4 -80t-4 -42h-472q0 -92 56 -146t163.5 -54t260.5 120l-6 -242q-140 -74 -282 -74q-208 0 -321 130t-113 326zM288 1094l116 298l158 -88l-176 -264zM304 556h268q0 160 -132 160q-68 0 -102 -45t-34 -115z" />
<glyph unicode="&#xea;" horiz-adv-x="850" d="M64 438q0 196 97 327t270 131t264 -111t91 -285q0 -52 -4 -80t-4 -42h-472q0 -92 56 -146t163.5 -54t260.5 120l-6 -242q-140 -74 -282 -74q-208 0 -321 130t-113 326zM150 1072l198 248h152l198 -248l-158 -76l-116 198l-116 -198zM304 556h268q0 160 -132 160 q-68 0 -102 -45t-34 -115z" />
<glyph unicode="&#xeb;" horiz-adv-x="850" d="M64 438q0 196 97 327t270 131t264 -111t91 -285q0 -52 -4 -80t-4 -42h-472q0 -92 56 -146t163.5 -54t260.5 120l-6 -242q-140 -74 -282 -74q-208 0 -321 130t-113 326zM166 1189q0 49 32 81t80 32t81 -33t33 -80t-33 -80t-81 -33t-80 32t-32 81zM304 556h268 q0 160 -132 160q-68 0 -102 -45t-34 -115zM498 1188q0 48 33 81t80 33t81 -32t34 -79t-34 -81t-80 -34t-80 32t-34 80z" />
<glyph unicode="&#xec;" horiz-adv-x="430" d="M64 1260l158 88l116 -298l-100 -54zM112 0q12 96 12 194v478q0 58 -12 208h254q-14 -92 -14 -204v-450q0 -122 14 -226h-254z" />
<glyph unicode="&#xed;" horiz-adv-x="402" d="M64 1094l116 298l158 -88l-176 -264zM76 0q12 96 12 194v478q0 58 -12 208h254q-14 -92 -14 -204v-450q0 -122 14 -226h-254z" />
<glyph unicode="&#xee;" horiz-adv-x="676" d="M64 1072l198 248h152l198 -248l-158 -76l-116 198l-116 -198zM212 0q12 96 12 194v478q0 58 -12 208h254q-14 -92 -14 -204v-450q0 -122 14 -226h-254z" />
<glyph unicode="&#xef;" horiz-adv-x="688" d="M64 1189q0 49 32 81t80 32t81 -33t33 -80t-33 -80t-81 -33t-80 32t-32 81zM218 0q12 96 12 194v478q0 58 -12 208h254q-14 -92 -14 -204v-450q0 -122 14 -226h-254zM396 1188q0 48 33 81t80 33t81 -32t34 -79t-34 -81t-80 -34t-80 32t-34 80z" />
<glyph unicode="&#xf0;" horiz-adv-x="906" d="M44 440q0 192 109 320q115 134 301 134q40 0 124 -14q-27 92 -128 178q-149 -113 -212 -168q-12 14 -28 35t-33 42t-33 41t-28 34q36 22 82 45t80 47q-115 38 -214 32l80 198q170 -18 298 -88q45 39 112 106l130 -152q-22 -14 -45 -24t-47 -26q132 -128 204 -332 q66 -186 66 -408q0 -192 -109 -320q-115 -134 -299 -134q-188 0 -303 134q-107 125 -107 320zM272 440q0 -103 31 -160.5t65 -83.5t84 -26q94 0 141 90q39 74 39 180q0 177 -95 245q-35 25 -85 25q-91 0 -139 -92q-41 -78 -41 -178z" />
<glyph unicode="&#xf1;" horiz-adv-x="928" d="M64 0q26 202 26 422t-26 458h230v-72q105 88 220 88q172 0 261 -126t89 -317t-88 -377t-244 -350l-176 150q124 98 199 256t75 320q0 96 -40 165t-119.5 69t-166.5 -68l-2 -310q0 -170 16 -308h-254zM122 996q15 112 84 183q61 63 126 63q41 0 96 -32q105 -60 136 -60 q48 0 58 92h184q-19 -116 -84 -183q-61 -63 -126 -63q-32 0 -68 19t-60 33q-69 40 -104 40q-48 0 -58 -92h-184z" />
<glyph unicode="&#xf2;" horiz-adv-x="944" d="M64 440q0 192 110 323t299 131t298 -131t109 -323t-110 -323t-297 -131t-298 131t-111 323zM300 439q0 -101 34 -169q46 -90 139 -90t137 88q34 68 34 173t-32 169q-44 90 -138 90t-134 -80t-40 -181zM336 1260l158 88l116 -298l-100 -54z" />
<glyph unicode="&#xf3;" horiz-adv-x="944" d="M64 440q0 192 110 323t299 131t298 -131t109 -323t-110 -323t-297 -131t-298 131t-111 323zM300 439q0 -101 34 -169q46 -90 139 -90t137 88q34 68 34 173t-32 169q-44 90 -138 90t-134 -80t-40 -181zM334 1094l116 298l158 -88l-176 -264z" />
<glyph unicode="&#xf4;" horiz-adv-x="944" d="M64 440q0 192 110 323t299 131t298 -131t109 -323t-110 -323t-297 -131t-298 131t-111 323zM196 1072l198 248h152l198 -248l-158 -76l-116 198l-116 -198zM300 439q0 -101 34 -169q46 -90 139 -90t137 88q34 68 34 173t-32 169q-44 90 -138 90t-134 -80t-40 -181z" />
<glyph unicode="&#xf5;" horiz-adv-x="944" d="M64 440q0 192 110 323t299 131t298 -131t109 -323t-110 -323t-297 -131t-298 131t-111 323zM130 996q15 112 84 183q61 63 126 63q41 0 96 -32q105 -60 136 -60q48 0 58 92h184q-19 -116 -84 -183q-61 -63 -126 -63q-32 0 -68 19t-60 33q-69 40 -104 40q-48 0 -58 -92 h-184zM300 439q0 -101 34 -169q46 -90 139 -90t137 88q34 68 34 173t-32 169q-44 90 -138 90t-134 -80t-40 -181z" />
<glyph unicode="&#xf6;" horiz-adv-x="944" d="M64 440q0 192 110 323t299 131t298 -131t109 -323t-110 -323t-297 -131t-298 131t-111 323zM190 1189q0 49 32 81t80 32t81 -33t33 -80t-33 -80t-81 -33t-80 32t-32 81zM300 439q0 -101 34 -169q46 -90 139 -90t137 88q34 68 34 173t-32 169q-44 90 -138 90t-134 -80 t-40 -181zM522 1188q0 48 33 81t80 33t81 -32t34 -79t-34 -81t-80 -34t-80 32t-34 80z" />
<glyph unicode="&#xf7;" horiz-adv-x="994" d="M64 442v216q100 -12 202 -12h474q96 0 190 12v-216q-132 12 -178 12h-492q-96 0 -196 -12zM382 856q0 48 32 81t81 33t82 -33t33 -81t-33 -81t-81 -33t-81 33t-33 81zM386 244q0 48 32 81t81 33t82 -33t33 -81t-33 -81t-81 -33t-81 33t-33 81z" />
<glyph unicode="&#xf8;" horiz-adv-x="944" d="M64 440q0 190 106 318q70 82 172 116t214 12q10 34 19 65t19 59l174 -72q-26 -42 -60 -116q172 -137 172 -382q0 -190 -106 -318q-72 -86 -178 -119t-220 -7q-34 -94 -30 -106l-172 68q42 65 54 104q-164 140 -164 378zM280 431q4 -88 36 -161q168 404 176 426v2 q-52 8 -98 -15t-72 -69t-35 -92t-7 -91zM442 182q95 -18 162 72q58 79 58 186q0 68 -50 168q-88 -206 -170 -426z" />
<glyph unicode="&#xf9;" d="M64 394q0 152 46 276t130 244l208 -104q-70 -66 -111 -172t-41 -202t39 -171t115.5 -75t153.5 82v382q0 110 -14 226h254q-14 -117 -14 -204v-450q0 -120 14 -226h-224v76q-108 -88 -214 -88q-164 0 -253 127t-89 279zM336 1260l158 88l116 -298l-100 -54z" />
<glyph unicode="&#xfa;" d="M64 394q0 152 46 276t130 244l208 -104q-70 -66 -111 -172t-41 -202t39 -171t115.5 -75t153.5 82v382q0 110 -14 226h254q-14 -117 -14 -204v-450q0 -120 14 -226h-224v76q-108 -88 -214 -88q-164 0 -253 127t-89 279zM320 1094l116 298l158 -88l-176 -264z" />
<glyph unicode="&#xfb;" d="M64 394q0 152 46 276t130 244l208 -104q-70 -66 -111 -172t-41 -202t39 -171t115.5 -75t153.5 82v382q0 110 -14 226h254q-14 -117 -14 -204v-450q0 -120 14 -226h-224v76q-108 -88 -214 -88q-164 0 -253 127t-89 279zM182 1072l198 248h152l198 -248l-158 -76l-116 198 l-116 -198z" />
<glyph unicode="&#xfc;" d="M64 394q0 152 46 276t130 244l208 -104q-70 -66 -111 -172t-41 -202t39 -171t115.5 -75t153.5 82v382q0 110 -14 226h254q-14 -117 -14 -204v-450q0 -120 14 -226h-224v76q-108 -88 -214 -88q-164 0 -253 127t-89 279zM228 1189q0 49 32 81t80 32t81 -33t33 -80t-33 -80 t-81 -33t-80 32t-32 81zM560 1188q0 48 33 81t80 33t81 -32t34 -79t-34 -81t-80 -34t-80 32t-34 80z" />
<glyph unicode="&#xfd;" horiz-adv-x="810" d="M2 834l242 72q22 -156 75 -326t89 -284q56 202 96 348t60 262l244 -72q-33 -63 -78 -204l-352 -1122l-226 78q46 92 76 191t66 215q-14 40 -83 262t-108 334t-101 246zM274 1092l116 298l158 -88l-174 -262z" />
<glyph unicode="&#xfe;" horiz-adv-x="918" d="M64 1314h254q-21 -209 -16 -484q113 94 232 94q141 0 234 -113q86 -104 86 -253q0 -198 -121 -344t-317 -218l-100 144l-2 -321l2 -105q5 -87 14 -144h-254q12 110 12 226l10 615v394q0 203 -34 509zM316 194q120 12 210 122t90 232q0 113 -76 154q-26 14 -62 14 q-75 0 -162 -82v-440z" />
<glyph unicode="&#xff;" horiz-adv-x="812" d="M2 836l242 70q22 -156 75 -326t89 -282q42 150 88 311t68 297l246 -70q-43 -89 -80 -204l-352 -1124l-226 78q46 92 76 191t66 215q-6 16 -79 251t-111 345t-102 248zM152 1196q0 46 32 80t80 34t81 -33t33 -80t-32 -81t-79 -34t-81 34t-34 80zM486 1195q0 47 32 81 t79 34t81 -34t34 -80t-32 -80t-80 -34t-81 33t-33 80z" />
<glyph unicode="&#x152;" horiz-adv-x="1580" d="M64 669q0 285 92 455q118 220 376 220q168 0 268 -104v94h672v-228q-131 14 -226 14h-224v-338h132q126 0 256 12v-230q-96 14 -204 14h-184v-366h224q144 0 270 14v-226h-716v100q-102 -110 -264 -110q-262 0 -380 222q-92 172 -92 457zM318 664q0 -194 32 -296 q54 -172 206 -172t208 172q34 104 34 301t-32 297q-56 172 -208 172t-206 -172q-34 -108 -34 -302z" />
<glyph unicode="&#x153;" horiz-adv-x="1408" d="M64 439q0 189 110 321t283 132t283 -114q106 118 262 118t248 -112t92 -280q0 -54 -10 -124h-470q0 -90 57 -145t132 -55t135 23t158 97l-6 -240q-152 -74 -284 -74q-191 0 -304 124q-108 -124 -287 -124t-289 132t-110 321zM300 439q0 -101 34 -169q46 -90 139 -90 t137 88q34 68 34 171t-34 171q-46 90 -138 90t-132 -80t-40 -181zM860 560h268q0 70 -32 114t-101 44t-102 -44t-33 -114z" />
<glyph unicode="&#x178;" horiz-adv-x="982" d="M2 1250l240 118q36 -126 110 -284q92 -186 134 -274q70 138 151 295t119 267l224 -130q-108 -154 -221 -361t-155 -335q-6 -16 -6 -185t22 -361h-272q16 140 16 266v278l-244 500q-61 125 -118 206zM210 1557q0 49 32 81t80 32t81 -33t33 -80t-33 -80t-81 -33t-80 32 t-32 81zM542 1556q0 48 33 81t80 33t81 -32t34 -79t-34 -81t-80 -34t-80 32t-34 80z" />
<glyph unicode="&#x2c6;" horiz-adv-x="676" d="M64 1488l198 248h152l198 -248l-158 -76l-116 198l-116 -198z" />
<glyph unicode="&#x2dc;" horiz-adv-x="812" d="M64 1420q15 112 84 197q62 77 126 77q41 0 96 -32q105 -60 136 -60q48 0 58 92h184q-20 -118 -84 -197q-62 -77 -126 -77q-32 0 -68 19t-60 33q-69 40 -104 40q-48 0 -58 -92h-184z" />
<glyph unicode="&#x2000;" />
<glyph unicode="&#x2001;" horiz-adv-x="1816" />
<glyph unicode="&#x2002;" />
<glyph unicode="&#x2003;" horiz-adv-x="1816" />
<glyph unicode="&#x2004;" horiz-adv-x="605" />
<glyph unicode="&#x2005;" horiz-adv-x="454" />
<glyph unicode="&#x2006;" horiz-adv-x="302" />
<glyph unicode="&#x2007;" horiz-adv-x="302" />
<glyph unicode="&#x2008;" horiz-adv-x="227" />
<glyph unicode="&#x2009;" horiz-adv-x="363" />
<glyph unicode="&#x200a;" horiz-adv-x="100" />
<glyph unicode="&#x2010;" horiz-adv-x="728" d="M64 362v216q88 -12 172 -12h236q98 0 192 12v-216q-112 14 -200 14h-198q-73 0 -202 -14z" />
<glyph unicode="&#x2011;" horiz-adv-x="728" d="M64 362v216q88 -12 172 -12h236q98 0 192 12v-216q-112 14 -200 14h-198q-73 0 -202 -14z" />
<glyph unicode="&#x2012;" horiz-adv-x="728" d="M64 362v216q88 -12 172 -12h236q98 0 192 12v-216q-112 14 -200 14h-198q-73 0 -202 -14z" />
<glyph unicode="&#x2013;" horiz-adv-x="954" d="M64 362v216q100 -12 202 -12h434q96 0 190 12v-216q-132 12 -178 12h-452q-96 0 -196 -12z" />
<glyph unicode="&#x2014;" horiz-adv-x="2000" d="M0 362v216q100 -12 202 -12h1598q100 0 200 12v-216q-100 12 -200 12h-1598q-100 0 -202 -12z" />
<glyph unicode="&#x2018;" horiz-adv-x="396" d="M64 1100q0 64 32 130t82 118h142q-67 -59 -104 -152q50 0 83 -35t33 -89t-38 -92t-97 -38t-96 47t-37 111z" />
<glyph unicode="&#x2019;" horiz-adv-x="396" d="M64 1220q0 52 36 90t97 38t98 -46t37 -111t-33 -132t-83 -117h-142q40 34 61 65t43 87q-48 0 -81 37t-33 89z" />
<glyph unicode="&#x201a;" horiz-adv-x="396" d="M64 126q0 54 37 91t97 37t97 -45t37 -111q0 -125 -116 -250h-142q68 60 104 152q-50 0 -82 36t-32 90z" />
<glyph unicode="&#x201c;" horiz-adv-x="708" d="M64 1100q0 64 32 130t82 118h142q-67 -59 -104 -152q50 0 83 -35t33 -89t-38 -92t-97 -38t-96 47t-37 111zM378 1099q0 63 33 132t81 117h142q-64 -57 -102 -152q48 0 80 -36t32 -89t-36 -91t-96 -38t-97 47t-37 110z" />
<glyph unicode="&#x201d;" horiz-adv-x="708" d="M64 1220q0 52 36 90t97 38t98 -46t37 -111t-33 -132t-83 -117h-142q40 34 61 65t43 87q-48 0 -81 37t-33 89zM378 1220q0 52 36 90t97 38t97 -46t36 -112q0 -132 -112 -248h-144q69 58 104 152q-48 0 -81 37t-33 89z" />
<glyph unicode="&#x201e;" horiz-adv-x="708" d="M64 126q0 54 37 91t97 37t97 -45t37 -111q0 -125 -116 -250h-142q68 60 104 152q-50 0 -82 36t-32 90zM378 126q0 54 37 91t97 37t96 -45t36 -111q0 -134 -112 -250h-144q65 57 104 152q-50 0 -82 36t-32 90z" />
<glyph unicode="&#x2022;" horiz-adv-x="588" d="M64 680q0 94 66 162t162 68t164 -68t68 -162t-68 -162t-162 -68t-162 68t-68 162z" />
<glyph unicode="&#x2026;" horiz-adv-x="1768" d="M64 141q0 63 44 107t109 44t109 -44t44 -108t-43 -109t-107 -45t-110 46t-46 109zM730 140q0 64 44 108t109 44t110 -45t45 -107t-46 -108t-109 -46t-108 45t-45 109zM1396 141q0 63 44 107t108 44t110 -44t46 -109t-44 -109t-108 -44t-110 46t-46 109z" />
<glyph unicode="&#x202f;" horiz-adv-x="363" />
<glyph unicode="&#x2039;" horiz-adv-x="438" d="M64 480l210 340l100 -54l-116 -292l116 -284l-106 -48z" />
<glyph unicode="&#x203a;" horiz-adv-x="438" d="M64 196l116 292l-116 284l106 48l204 -338l-210 -340z" />
<glyph unicode="&#x205f;" horiz-adv-x="454" />
<glyph unicode="&#x20ac;" horiz-adv-x="1068" d="M64 434l46 182l176 -4q-2 6 -16 100q-42 -2 -81 -3t-67 -5l46 190q6 -1 102 -8q22 174 130 302q140 164 372 164q113 0 232 -46v-232q-116 58 -193 58q-136 0 -219 -100q-46 -68 -64 -148q127 0 212.5 3t128.5 4t59 3l-46 -190q-133 14 -356 14q9 -65 26 -112 q223 0 318 10l-46 -182l-186 6q148 -198 354 -276l-116 -208q-305 134 -485 408q-25 38 -45 78q-226 0 -282 -8z" />
<glyph unicode="&#x2122;" horiz-adv-x="1368" d="M64 1182v152h506v-152l-164 6q-2 24 -3 14t-2 -41t-2 -75t-2 -86t-1 -77v-132q0 -97 14 -199h-180q12 78 12 158v438q-121 0 -178 -6zM596 1268l140 98q26 -71 79 -144q91 -124 129 -178q20 32 60 88q46 52 97 143t55 103l148 -104q-53 -60 -72 -86v-78l-4 -240v-69 q0 -71 18 -209h-188q14 70 14 160v216q-34 -44 -69 -96t-63 -92l-130 188v-194l2 -68l8 -114h-180q12 60 12 160l2 438q-35 42 -58 78z" />
<glyph unicode="&#xe000;" horiz-adv-x="910" d="M0 0v910h910v-910h-910z" />
</font>
</defs>
</svg>
